<?xml version="1.0" encoding="utf-8"?>
<!-- Generator: Adobe Illustrator 23.0.2, SVG Export Plug-In . SVG Version: 6.00 Build 0)  -->
<svg version="1.1" id="Capa_1" xmlns="http://www.w3.org/2000/svg" xmlns:xlink="http://www.w3.org/1999/xlink" x="0px" y="0px"
	 viewBox="0 0 480 480" style="enable-background:new 0 0 480 480;" xml:space="preserve">
<style type="text/css">
	.st0{fill:#7219C4;}
</style>
<g>
	<g>
		<path class="st0" d="M124.3,140.3c-8.9-9.2-21.3-14.4-34.1-14.4h-2.4c-12.8,0-25.2,5.2-34.1,14.4c-8.4,8.6-12.9,20.4-12.3,32.4
			l0.9,21.4c1.4,24.5,21.9,43.5,46.4,43.1h0.6c24.5,0.4,45-18.6,46.4-43.1l1-21.4C137.2,160.6,132.8,148.9,124.3,140.3z
			 M119.8,193.4c-1.1,16-14.5,28.2-30.5,27.8h-0.6c-16,0.4-29.5-11.9-30.5-27.8l-0.3-6.5c15.2-0.7,29.7-6.1,41.6-15.6
			c4.9,7.2,12.3,12.4,20.7,14.5L119.8,193.4z M109.9,155.8c-0.4-3.4-3-6.1-6.4-6.8c-3.3-0.7-6.8,0.8-8.4,3.8
			c-0.1,0.2-10,15.8-37.8,18.2c-0.1-7.4,2.8-14.5,7.9-19.7c5.9-6.1,14.1-9.6,22.6-9.5h2.4c8.5,0,16.7,3.4,22.6,9.5
			c4.6,4.8,7.4,11.2,7.8,17.9C115.1,166.7,111.1,161.7,109.9,155.8z"/>
	</g>
</g>
<g>
	<g>
		<path class="st0" d="M247.1,154c-8.5-8.2-22.1-8.2-30.6,0l-88.7,88.7c-1.5,1.5-3.5,2.3-5.6,2.3H41.3c-21.9,0-39.7,17.8-39.7,39.7
			v111.3c0,13.2,10.7,23.8,23.8,23.8c2.7,0,5.4-0.5,7.9-1.4v9.3c0,4.4,3.6,7.9,7.9,7.9h95.4c4.4,0,7.9-3.6,7.9-7.9V299
			c0-2,0.8-3.9,2.1-5.4l100.8-108.5C256.1,176.4,255.8,162.5,247.1,154z M236.3,174C236.2,174,236.2,174.1,236.3,174L135.1,282.8
			c-4.1,4.4-6.4,10.2-6.4,16.2v120.9H49.3V300.7c0-4.4-3.6-7.9-7.9-7.9s-7.9,3.6-7.9,7.9v95.4c0,4.4-3.6,7.9-7.9,7.9
			s-7.9-3.6-7.9-7.9V284.8c0-13.2,10.7-23.8,23.8-23.8h80.8c6.3,0,12.4-2.5,16.9-7l88.7-88.7c2.4-2.3,6.2-2.3,8.6,0
			C238.8,167.7,238.7,171.6,236.3,174z"/>
	</g>
</g>
<g>
	<g>
		<path d="M455,38.4H176c-13.1,0.1-23.5,10.8-23.4,23.8v119.2c0,4.4,3.6,7.9,7.9,7.9c4.4,0,7.9-3.6,7.9-7.9V86.1h294.1v190.7
			c0.1,4.3-3.3,7.8-7.6,7.9H183.8c-4.4,0-7.9,3.6-7.9,7.9s3.6,7.9,7.9,7.9H455c13.1-0.1,23.5-10.8,23.4-23.8V62.3
			C478.5,49.2,468,38.6,455,38.4z M462.5,70.2H168.5v-7.9c-0.1-4.3,3.3-7.8,7.6-7.9h279c4.3,0.1,7.7,3.7,7.6,7.9V70.2z"/>
	</g>
</g>
<g>
	<g>
		<path d="M438.7,139.8c-4.4,0-7.9,3.6-7.9,7.9V261c0,4.4,3.6,7.9,7.9,7.9c4.4,0,7.9-3.6,7.9-7.9V147.7
			C446.6,143.3,443.1,139.8,438.7,139.8z"/>
	</g>
</g>
<g>
	<g>
		<path d="M406.9,189.4c-4.4,0-7.9,3.6-7.9,7.9V261c0,4.4,3.6,7.9,7.9,7.9s7.9-3.6,7.9-7.9v-63.6C414.8,193,411.3,189.4,406.9,189.4
			z"/>
	</g>
</g>
<g>
	<g>
		<path d="M375.1,173.5c-4.4,0-7.9,3.6-7.9,7.9V261c0,4.4,3.6,7.9,7.9,7.9s7.9-3.6,7.9-7.9v-79.5
			C383.1,177.1,379.5,173.5,375.1,173.5z"/>
	</g>
</g>
<g>
	<g>
		<path d="M343.3,221.2c-4.4,0-7.9,3.6-7.9,7.9V261c0,4.4,3.6,7.9,7.9,7.9s7.9-3.6,7.9-7.9v-31.8
			C351.3,224.8,347.7,221.2,343.3,221.2z"/>
	</g>
</g>
<g>
	<g>
		<path class="st0" d="M443.1,103.3c-3.7-2.4-8.6-1.5-11,2.2l-27.1,40.7l-25.1-18.8c-3.5-2.7-8.5-2-11.1,1.5
			c-0.3,0.4-0.6,0.8-0.8,1.3L337,192.2l-30.2,22.7c-3.5,2.6-4.2,7.6-1.6,11.1c2.6,3.5,7.6,4.2,11.1,1.6l31.8-23.8
			c1-0.7,1.8-1.7,2.4-2.8l27.5-55.1l24.1,18.1c3.5,2.6,8.5,1.9,11.1-1.6c0.1-0.1,0.2-0.2,0.3-0.4l31.8-47.7
			C447.7,110.7,446.8,105.8,443.1,103.3z"/>
	</g>
</g>
<g>
	<g>
		<path d="M287.7,102h-95.4c-4.4,0-7.9,3.6-7.9,7.9c0,4.4,3.6,7.9,7.9,7.9h95.4c4.4,0,7.9-3.6,7.9-7.9
			C295.6,105.6,292.1,102,287.7,102z"/>
	</g>
</g>
<g>
	<g>
		<path d="M335.4,102h-15.9c-4.4,0-7.9,3.6-7.9,7.9c0,4.4,3.6,7.9,7.9,7.9h15.9c4.4,0,7.9-3.6,7.9-7.9
			C343.3,105.6,339.8,102,335.4,102z"/>
	</g>
</g>
</svg>
