<?xml version="1.0" encoding="utf-8"?>
<!-- Generator: Adobe Illustrator 23.0.2, SVG Export Plug-In . SVG Version: 6.00 Build 0)  -->
<svg version="1.1" id="Layer_5" xmlns="http://www.w3.org/2000/svg" xmlns:xlink="http://www.w3.org/1999/xlink" x="0px" y="0px"
	 viewBox="0 0 512 512" style="enable-background:new 0 0 512 512;" xml:space="preserve">
<style type="text/css">
	.st0{fill:#7219C4;}
	.st1{fill:#191919;}
</style>
<path class="st0" d="M328,456h64v16h-64V456z"/>
<path class="st0" d="M248,376c5.4,0,10.8-0.4,16-1.7v-0.7c5.5-1.1,10.8-2.7,16-4.6v0.4c3.5-1.9,6.8-3.1,10.6-4.3
	c4-1.3,4.5-2.1,8.1-4.4l1-0.7c29.4-16.9,51-45.8,58-80h0c0.8-5.3,2.2-10.6,2.5-16h-0.5c0.2-2.7,0.4-5.3,0.4-8
	c0-58-41.3-106.4-96-117.6v-0.2c-2.6-0.4-5.1-0.9-7.7-1c-2.8-0.2-5.5-0.8-8.3-1v0.2c-2.7-0.2-5.3-0.4-8-0.4c-2.3,0-4.5,0.2-6.7,0.3
	c0,0.1-0.1,0.2-0.3,0.3c-1.3,0.5-2.2,1.1-3.6,1.3c-1.3,0.2-2.7,0.1-4,0.2c-3.4,0.1-6.7,0.6-10.1,0.5c-0.1,0-0.1,0-0.2,0
	C160.9,150.1,120,198.4,120,256c0,24.1,7.2,46.4,19.4,65.3L124,336.7l-12-12l-91.7,91.7C12.4,424.3,8,434.8,8,446.1
	C8,469.2,26.8,488,49.9,488c11.2,0,21.7-4.4,29.7-12.3l91.7-91.7l-12-12l15.4-15.4c12.4,8.1,26.3,14,41.3,17v0.3
	c0.7,0.2,1.4,0.4,2.1,0.6c1.8,0.4,3.6,0.6,5.4,0.8c2.8,0.3,5.7,0.5,8.5,0.7v-0.4c2.7,0.2,5.3,0.4,8,0.4s5.3-0.2,8-0.4V376z
	 M68.3,464.4c-4.9,4.9-11.4,7.6-18.3,7.6C35.6,472,24,460.4,24,446.1c0-6.9,2.7-13.4,7.6-18.3l80.4-80.4l36.7,36.7L68.3,464.4z
	 M148,360.7L135.3,348l13.8-13.8c3.9,4.5,8.2,8.8,12.7,12.7L148,360.7z M240,360c-57.3,0-104-46.7-104-104c0-57.3,46.7-104,104-104
	s104,46.7,104,104C344,313.3,297.3,360,240,360z"/>
<path class="st0" d="M456,72H264c-8.8,0-16,7.2-16,16v48.2c2.8,0.2,5.5,0.8,8.3,1c2.6,0.2,5.1,0.7,7.7,1V88h192v304H264v-17.7
	c-5.2,1.3-10.6,1.7-16,1.7v16c0,8.8,7.2,16,16,16h192c8.8,0,16-7.2,16-16V88C472,79.2,464.8,72,456,72z"/>
<path class="st1" d="M464,8H256c-22.1,0-40,17.9-40,40v89.6c2.8,0,5.6-0.3,8.4-0.5c1.6-0.1,3.3,0,4.9-0.3c1-0.2,1.8-0.6,2.7-0.9V48
	c0-13.2,10.8-24,24-24h40v8c0,13.2,10.8,24,24,24h80c13.2,0,24-10.8,24-24v-8h40c13.2,0,24,10.8,24,24v376H232v-47
	c-2.8-0.1-5.7-0.3-8.5-0.7c-1.4-0.2-2.9-0.4-4.3-0.6c-1.1-0.2-2.1-0.5-3.2-0.8V464c0,22.1,17.9,40,40,40h208c22.1,0,40-17.9,40-40
	V48C504,25.9,486.1,8,464,8z M408,32c0,4.4-3.6,8-8,8h-80c-4.4,0-8-3.6-8-8v-8h96V32z M488,464c0,13.2-10.8,24-24,24H256
	c-13.2,0-24-10.8-24-24v-24h256V464z"/>
<path class="st1" d="M240,220c6.6,0,12,5.4,12,12h24c0-15.6-10.1-28.8-24-33.8V184h-24v14.2c-13.9,5-24,18.2-24,33.8
	c0,19.8,16.2,36,36,36c6.6,0,12,5.4,12,12s-5.4,12-12,12s-12-5.4-12-12h-24c0,15.6,10.1,28.8,24,33.8V328h24v-14.2
	c13.9-5,24-18.2,24-33.8c0-19.8-16.2-36-36-36c-6.6,0-12-5.4-12-12S233.4,220,240,220z"/>
</svg>
