<?xml version="1.0" encoding="utf-8"?>
<!-- Generator: Adobe Illustrator 23.0.2, SVG Export Plug-In . SVG Version: 6.00 Build 0)  -->
<svg version="1.1" id="Layer_3" xmlns="http://www.w3.org/2000/svg" xmlns:xlink="http://www.w3.org/1999/xlink" x="0px" y="0px"
	 viewBox="0 0 512 512" style="enable-background:new 0 0 512 512;" xml:space="preserve">
<style type="text/css">
	.st0{fill:#7219C4;}
	.st1{fill:#191919;}
</style>
<path class="st0" d="M120,456h48v16h-48V456z"/>
<path class="st0" d="M487.8,240h0.2v-32c0-22.1-17.9-40-40-40h-0.5c0.2-2.7,0.5-5.3,0.5-8c0-57.3-46.7-104-104-104
	c-23.7,0-45.4,8-62.9,21.4c0.2,0.2,0.2,0.6-0.1,0.8c-3.2,2.1-5.7,5.6-8.5,8.1c-1.5,1.3-3,2.6-4.5,3.9c-1.2,1-3,2.1-3.9,3.3v0.2
	c-15,18-24,41.2-24,66.4c0,2.7,0.3,5.3,0.5,8H224c-22.1,0-40,17.9-40,40v208c0,2.7,0.3,5.3,0.8,7.8c2.9,5.2,4.7,11,7.8,16.2
	c0.1,0.2,0.1,0.3,0,0.5c7.3,9.4,18.6,15.5,31.4,15.5h40v0.1h16V456h184c22.1,0,40-17.9,40-40V272C504,258.9,497.6,247.3,487.8,240z
	 M448,184c13.2,0,24,10.8,24,24v24.8c-2.6-0.5-5.3-0.8-8-0.8h-45.2c12.9-13.4,22-29.9,26.3-48H448z M344,72c48.5,0,88,39.5,88,88
	c0,28.8-14.1,55.5-37.6,72H352v-17.1c13.8-3.6,24-16,24-30.9c0-17.6-14.4-32-32-32c-8.8,0-16-7.2-16-16c0-8.8,7.2-16,16-16
	c8.8,0,16,7.2,16,16h16c0-14.9-10.2-27.3-24-30.9V88h-16v17.1c-13.8,3.6-24,16-24,30.9c0,17.6,14.4,32,32,32c8.8,0,16,7.2,16,16
	c0,8.8-7.2,16-16,16c-8.8,0-16-7.2-16-16h-16c0,14.9,10.2,27.3,24,30.9V232h-42.4c-23.6-16.5-37.6-43.2-37.6-72
	C256,111.5,295.5,72,344,72z M224,184h18.9c1.3,5.5,3.1,10.8,5.2,16H224v16h32v-0.9c3.8,6.1,8.2,11.7,13.2,16.9H224
	c-13.2,0-24-10.8-24-24S210.8,184,224,184z M488,376h-96c-17.6,0-32-14.4-32-32s14.4-32,32-32h96V376z M488,296h-96
	c-26.5,0-48,21.5-48,48s21.5,48,48,48h96v24c0,13.2-10.8,24-24,24H224c-13.2,0-24-10.8-24-24V240c6.7,5,15,8,24,8h240
	c13.2,0,24,10.8,24,24V296z"/>
<path class="st1" d="M264,457.1v6.9c0,13.2-10.8,24-24,24H48c-13.2,0-24-10.8-24-24v-24h167.4c-2.9-5.1-4.7-10.8-7.6-15.9
	c0,0,0-0.1,0-0.1H24V72h240v20c0.8-0.7,1.7-1.3,2.5-2c1.8-1.4,3.5-2.9,5.2-4.5c2.8-2.5,5.2-5.8,8.3-8V48c0-22.1-17.9-40-40-40H48
	C25.9,8,8,25.9,8,48v416c0,22.1,17.9,40,40,40h192c22.1,0,40-17.9,40-40v-6.9H264z M24,48c0-13.2,10.8-24,24-24h192
	c13.2,0,24,10.8,24,24v8H24V48z"/>
</svg>
