<?xml version="1.0" encoding="utf-8"?>
<!-- Generator: Adobe Illustrator 23.0.2, SVG Export Plug-In . SVG Version: 6.00 Build 0)  -->
<svg version="1.1" id="Capa_1" xmlns="http://www.w3.org/2000/svg" xmlns:xlink="http://www.w3.org/1999/xlink" x="0px" y="0px"
	 viewBox="0 0 334.9 334.9" style="enable-background:new 0 0 334.9 334.9;" xml:space="preserve">
<style type="text/css">
	.st0{fill:#7219C4;}
	.st1{fill:#191919;}
</style>
<path class="st0" d="M333.2,156h-16.1V82.1c0-17.7-14.4-32.1-32.1-32.1h-21.8L241,9.9c-3.4-6.1-9.9-9.9-16.9-9.9
	c-3.3,0-6.5,0.8-9.4,2.4L129.3,50H33.8C16.1,50,1.7,64.4,1.7,82.1v220.7c0,17.7,14.4,32.1,32.1,32.1H285c17.7,0,32.1-14.4,32.1-32.1
	v-64.8h16.1L333.2,156L333.2,156z M285,62.8c9.9,0,18,7.5,19.1,17.1h-24.2l-9.5-17.1H285z M221,13.7c3-1.7,7.1-0.5,8.7,2.5
	l35.5,63.8H101.8L221,13.7z M304.3,302.7c0,10.6-8.7,19.3-19.3,19.3H33.8c-10.6,0-19.3-8.7-19.3-19.3V82.1
	c0-10.6,8.7-19.3,19.3-19.3h72.4L75.3,79.9H37.8c-3.6,0-6.4,2.9-6.4,6.4s2.9,6.4,6.4,6.4h14.4h234.8h17.2V156h-47
	c-21.8,0-39.6,17.8-39.6,39.6v2.8c0,21.8,17.8,39.6,39.6,39.6h47L304.3,302.7L304.3,302.7z M320.3,225.1h-3.2h-59.9
	c-14.7,0-26.7-12-26.7-26.7v-2.8c0-14.7,12-26.7,26.7-26.7h59.9h3.2V225.1z M277,197.5c0,7.8-6.4,14.2-14.2,14.2
	c-7.8,0-14.2-6.4-14.2-14.2s6.4-14.2,14.2-14.2C270.6,183.3,277,189.7,277,197.5z"/>
<g>
	<g>
		<path class="st1" d="M124.4,245.2c0,0,0-0.1,0-0.1l-2.9-13.3c-0.3-1.4-1.8-2.4-3.2-2l-7.4,1.6c-0.8-1.3-1.7-2.5-2.7-3.7l4.2-6.4
			c0.8-1.2,0.4-2.9-0.8-3.7L100,210c-1.2-0.8-2.9-0.4-3.7,0.8l-4.1,6.5c-1.4-0.4-2.9-0.6-4.4-0.8l-1.6-7.5c-0.3-1.4-1.8-2.4-3.2-2
			c0,0-0.1,0-0.1,0L69.3,210c-1.4,0.3-2.4,1.8-2,3.2l1.9,7.6c-1.2,0.7-2.4,1.6-3.5,2.5l-6.7-4.3c-1.2-0.8-2.9-0.4-3.7,0.8l-7.5,11.6
			c-0.8,1.2-0.4,2.9,0.8,3.7l6.7,4.3c-0.3,1.4-0.6,2.7-0.7,4.1l-7.8,1.7c-1.4,0.3-2.4,1.8-2,3.2l2.9,13.5c0.3,1.4,1.8,2.4,3.2,2
			l7.8-1.7c0.8,1.2,1.6,2.3,2.6,3.4l-4.3,6.7c-0.8,1.2-0.4,2.9,0.8,3.7l11.5,7.4c1.2,0.8,2.9,0.4,3.7-0.8l4.3-6.7
			c1.4,0.4,2.8,0.6,4.2,0.8l1.7,7.7c0.3,1.3,1.4,2.2,2.7,2.1h0.6l13.5-2.9c1.4-0.4,2.1-1.9,1.8-3.3L100,273c1.3-0.7,2.5-1.6,3.7-2.5
			l6.5,4.2c1.2,0.8,2.9,0.4,3.7-0.8l7.4-11.6c0.8-1.2,0.5-2.9-0.7-3.7c0,0-0.1,0-0.1-0.1l-6.4-4.1c0.4-1.5,0.7-3,0.8-4.5l7.4-1.6
			C123.7,248,124.7,246.6,124.4,245.2z M111.8,245.2c-1.2,0.3-2.1,1.3-2.1,2.5c-0.1,2.4-0.5,4.8-1.3,7.1c-0.4,1.2,0.1,2.5,1.1,3.1
			l5.8,3.7l-4.5,7l-5.9-3.8c-1-0.7-2.4-0.5-3.3,0.3c-1.8,1.6-3.7,3-5.9,4c-1.1,0.5-1.7,1.8-1.5,3l1.5,6.9l-8.1,1.8l-1.5-7
			c-0.3-1.2-1.3-2.1-2.5-2.1c-2.3-0.1-4.7-0.5-6.9-1.3c-0.3-0.1-0.6-0.1-0.9-0.1c-0.9,0-1.8,0.5-2.3,1.2l-3.9,6.1l-7-4.5l3.8-6.2
			c0.7-1,0.5-2.4-0.3-3.3c-1.6-1.7-2.9-3.6-3.9-5.7c-0.6-1.1-1.8-1.7-3-1.4l-7.2,1.6l-1.8-8.1l7.2-1.6c1.2-0.3,2.1-1.3,2.1-2.5
			c0.2-2.3,0.7-4.6,1.5-6.8c0.4-1.2-0.1-2.4-1.1-3.1l-6.1-3.9l4.5-7l5.9,3.8c1,0.7,2.4,0.6,3.3-0.3c1.7-1.6,3.6-3,5.7-4
			c1.1-0.6,1.7-1.8,1.4-3l-1.5-7l8.1-1.8l1.5,6.9c0.3,1.3,1.4,2.2,2.7,2.1c2.4,0.1,4.7,0.5,7,1.2c1.2,0.4,2.4-0.1,3.1-1.1l3.8-5.9
			l7,4.5l-3.7,5.8c-0.7,1-0.5,2.4,0.3,3.3c1.6,1.8,2.9,3.7,4,5.9c0.6,1.1,1.8,1.7,3,1.4l6.7-1.5l1.8,8.1L111.8,245.2z"/>
	</g>
</g>
<g>
	<g>
		<path class="st1" d="M99.3,243.6c-1.5-6.9-7.6-11.9-14.7-11.9c-8.3,0-15.1,6.7-15.1,15.1c0,8.3,6.7,15.1,15.1,15.1
			c8.3,0,15.1-6.7,15.1-15.1C99.7,245.7,99.5,244.7,99.3,243.6z M86.6,256.3L86.6,256.3c-5.2,1.1-10.3-2.2-11.5-7.4
			c-1.1-5.2,2.2-10.4,7.4-11.6c0.7-0.1,1.4-0.2,2.1-0.2c5.4,0,9.7,4.3,9.7,9.7C94.3,251.4,91.1,255.3,86.6,256.3z"/>
	</g>
</g>
<g>
	<g>
		<path class="st1" d="M217.9,180.8c0-0.1,0-0.1,0-0.2l-4.3-19.5c-0.5-2.1-2.6-3.5-4.7-3l-10.8,2.4c-1.2-1.9-2.5-3.7-4-5.5l6.2-9.4
			c1.2-1.8,0.6-4.3-1.2-5.5l-17-10.9c-1.8-1.2-4.3-0.6-5.5,1.2l-6.1,9.5c-2.1-0.5-4.3-0.9-6.4-1.1l-2.4-11.1c-0.5-2.1-2.6-3.5-4.7-3
			c-0.1,0-0.1,0-0.2,0l-19.8,4.3c-2.1,0.5-3.5,2.6-3,4.7l2.8,11.2c-1.8,1.1-3.5,2.3-5.2,3.6l-9.8-6.2c-1.8-1.2-4.3-0.6-5.5,1.2
			l-11,17c-1.2,1.8-0.6,4.3,1.2,5.5l9.9,6.3c-0.5,2-0.9,4-1.1,6.1l-11.5,2.5c-2.1,0.5-3.5,2.6-3,4.7l4.3,19.8c0.5,2.1,2.6,3.5,4.7,3
			l11.5-2.5c1.1,1.7,2.4,3.4,3.8,5l-6.3,9.9c-1.2,1.8-0.6,4.3,1.2,5.5l16.9,10.9c1.8,1.2,4.3,0.6,5.5-1.2l6.2-9.8
			c2,0.5,4.1,0.9,6.2,1.1l2.5,11.3c0.4,1.9,2.1,3.2,4,3.1h0.8l19.8-4.3c2-0.6,3.2-2.7,2.6-4.8l-2.4-11.1c1.9-1.1,3.7-2.3,5.4-3.7
			l9.6,6.2c1.8,1.2,4.3,0.6,5.5-1.2l10.9-17c1.2-1.8,0.7-4.3-1.1-5.5c0,0-0.1-0.1-0.1-0.1l-9.4-6c0.6-2.2,1-4.3,1.2-6.6l10.8-2.4
			C216.9,185,218.3,182.9,217.9,180.8z M199.4,180.9c-1.8,0.4-3,1.9-3.1,3.7c-0.1,3.5-0.8,7-1.9,10.4c-0.6,1.7,0.1,3.6,1.6,4.6
			l8.5,5.5l-6.6,10.3l-8.6-5.5c-1.5-1-3.5-0.8-4.8,0.4c-2.6,2.4-5.5,4.3-8.6,5.9c-1.6,0.8-2.5,2.6-2.1,4.4l2.2,10.1l-11.9,2.6
			l-2.3-10.3c-0.4-1.8-1.9-3-3.7-3.1c-3.4-0.2-6.8-0.8-10.1-1.9c-0.4-0.1-0.8-0.2-1.3-0.2c-1.3,0-2.6,0.7-3.3,1.8l-5.7,8.9
			l-10.3-6.6l5.5-9.1c1-1.5,0.8-3.5-0.4-4.8c-2.3-2.5-4.2-5.3-5.8-8.3c-0.8-1.6-2.6-2.5-4.4-2.1l-10.5,2.3l-2.6-11.9l10.5-2.3
			c1.8-0.4,3.1-1.9,3.1-3.7c0.2-3.4,1-6.8,2.2-10c0.6-1.7-0.1-3.6-1.6-4.5l-9-5.8l6.6-10.3l8.7,5.6c1.5,1,3.5,0.8,4.9-0.4
			c2.5-2.4,5.3-4.4,8.4-5.9c1.6-0.8,2.4-2.6,2.1-4.3l-2.3-10.3l11.9-2.6l2.2,10.1c0.4,1.9,2.1,3.2,4,3.1c3.5,0.1,7,0.7,10.3,1.8
			c1.7,0.6,3.6-0.1,4.5-1.6l5.5-8.6l10.3,6.6l-5.5,8.5c-1,1.5-0.8,3.5,0.5,4.9c2.4,2.6,4.3,5.5,5.8,8.7c0.8,1.6,2.6,2.5,4.4,2.1
			l9.9-2.1l2.6,11.9L199.4,180.9z"/>
	</g>
</g>
<g>
	<g>
		<path class="st1" d="M181.1,178.5c-2.2-10.2-11.2-17.5-21.6-17.4c-12.2,0-22.1,9.9-22.1,22.1c0,12.2,9.9,22.1,22.1,22.1
			c12.2,0,22.1-9.9,22.1-22.1C181.6,181.6,181.4,180,181.1,178.5z M162.5,197.1L162.5,197.1c-7.6,1.6-15.1-3.3-16.9-10.9
			c-1.7-7.7,3.2-15.3,10.9-17c1-0.2,2-0.3,3-0.3c7.9,0,14.2,6.3,14.2,14.2C173.7,189.9,169,195.7,162.5,197.1z"/>
	</g>
</g>
</svg>
