<?xml version="1.0" encoding="utf-8"?>
<!-- Generator: Adobe Illustrator 23.0.2, SVG Export Plug-In . SVG Version: 6.00 Build 0)  -->
<svg version="1.1" id="Layer_1" xmlns="http://www.w3.org/2000/svg" xmlns:xlink="http://www.w3.org/1999/xlink" x="0px" y="0px"
	 viewBox="0 0 354 354" style="enable-background:new 0 0 354 354;" xml:space="preserve">
<style type="text/css">
	.st0{fill:#191919;}
	.st1{fill:#7219C4;}
</style>
<path class="st0" d="M337.7,188.8l-25-42.7v-0.6C312.7,65.3,246.8,0,165.8,0C82.1,0,13.9,67.5,13.9,150.4v5.8
	c0,27,9.7,53.2,27.3,73.7c18.9,22,29.2,50.1,29.2,79v38.3c0,3.8,3,6.8,6.8,6.8h156.6c3.8,0,6.8-3.1,6.8-6.8v-28
	c0-12.9,10.6-23.3,23.6-23.3H277c17.5,0,31.7-14.1,31.7-31.5v-46.6h12.3c7,0,13.2-3.6,16.7-9.7C341.2,202.1,341.2,194.9,337.7,188.8
	z M326,201.4c-0.5,0.9-1.9,2.8-4.9,2.8h-19.1c-3.8,0-6.8,3-6.8,6.8v53.4c0,9.8-8.1,17.9-18.1,17.9h-12.7c-20.5,0-37.3,16.6-37.3,37
	v21.2h-143v-31.4c0-32.1-11.5-63.3-32.5-87.8c-15.5-18.1-24-41.2-24-64.9v-5.8c0-75.4,62-136.8,138.2-136.8
	c73.5,0,133.2,59.1,133.2,131.8v2.5c0,1.2,0.3,2.4,0.9,3.4l26,44.3C327.4,198.3,326.5,200.5,326,201.4z"/>
<path class="st1" d="M145.4,183.8c7.5,0,13.6-6.1,13.6-13.6c0-7.5-6.1-13.6-13.6-13.6c-5.1,0-9.5,2.8-11.8,6.9H89.1
	c-2.3-4.1-6.7-6.9-11.8-6.9c-7.5,0-13.6,6.1-13.6,13.6c0,7.5,6.1,13.6,13.6,13.6c5,0,9.3-2.7,11.7-6.7h44.8
	C136.1,181.1,140.4,183.8,145.4,183.8z"/>
<path class="st1" d="M231.8,173.8L213.4,156c-0.3-7.3-6.2-13.1-13.6-13.1c-7.5,0-13.6,6.1-13.6,13.6c0,7.5,6.1,13.6,13.6,13.6
	c2.5,0,4.7-0.7,6.7-1.8l13.7,13.2v31.3c-4.1,2.4-6.8,6.7-6.8,11.7c0,7.5,6.1,13.6,13.6,13.6c7.5,0,13.6-6.1,13.6-13.6
	c0-5-2.8-9.4-6.8-11.7v-34.2C233.9,176.9,233.1,175.1,231.8,173.8z"/>
<path class="st1" d="M152.2,251.9c-7.5,0-13.6,6.1-13.6,13.6c0,5,2.8,9.4,6.8,11.7v35.9h-22.3c-2.4-4.1-6.7-6.8-11.7-6.8
	c-7.5,0-13.6,6.1-13.6,13.6c0,7.5,6.1,13.6,13.6,13.6c5,0,9.4-2.8,11.7-6.8h29.1c3.8,0,6.8-3,6.8-6.8v-42.7
	c4.1-2.4,6.8-6.7,6.8-11.7C165.8,258,159.7,251.9,152.2,251.9z"/>
<path class="st1" d="M261.1,211c-7.5,0-13.6,6.1-13.6,13.6c0,5,2.8,9.4,6.8,11.7v15.5h-61.6c-3.8,0-6.8,3.1-6.8,6.8v49.7
	c-3.9,2.4-6.4,6.6-6.4,11.5c0,7.5,6.1,13.6,13.6,13.6c7.5,0,13.6-6.1,13.6-13.6c0-5.2-2.9-9.6-7.2-11.9v-42.5h61.6
	c3.8,0,6.8-3,6.8-6.8v-22.3c4.1-2.4,6.8-6.7,6.8-11.7C274.7,217.1,268.6,211,261.1,211z"/>
<path class="st1" d="M267.9,163.4c-1.6,0-3.2,0.3-4.6,0.9l-21.9-21.9V78.1c0-1.8-0.7-3.5-2-4.8L227,60.9
	c-0.2-7.3-6.2-13.2-13.6-13.2c-7.5,0-13.6,6.1-13.6,13.6c0,7.5,6.1,13.6,13.6,13.6c2.4,0,4.6-0.7,6.6-1.8l7.8,7.8v64.3
	c0,1.8,0.7,3.5,2,4.8l24.8,24.8c-0.1,0.7-0.2,1.5-0.2,2.3c0,7.5,6.1,13.6,13.6,13.6c7.5,0,13.6-6.1,13.6-13.6
	C281.5,169.5,275.4,163.4,267.9,163.4z"/>
<path class="st1" d="M68.3,143.6H134c1.8,0,3.6-0.7,4.9-2.1l31.5-32.6h17.7c2.4,4.1,6.7,6.8,11.7,6.8c7.5,0,13.6-6.1,13.6-13.6
	c0-7.5-6.1-13.6-13.6-13.6c-5,0-9.4,2.8-11.7,6.8h-20.6c-1.8,0-3.6,0.7-4.9,2.1L131.1,130H68.9c-2.3-4.4-6.8-7.4-12.1-7.4
	c-7.5,0-13.6,6.1-13.6,13.6c0,7.5,6.1,13.6,13.6,13.6C61.6,149.8,65.8,147.3,68.3,143.6z"/>
<path class="st1" d="M193,224.7c0-7.5-6.1-13.6-13.6-13.6c-1,0-2,0.1-3,0.4l-11.8-12.2c-1.3-1.3-3.1-2.1-4.9-2.1h-48.4
	c-3.8,0-6.8,3.1-6.8,6.8V247c-4.1,2.4-6.8,6.7-6.8,11.7c0,7.5,6.1,13.6,13.6,13.6c7.5,0,13.6-6.1,13.6-13.6c0-5-2.8-9.4-6.8-11.7
	v-36.3h38.7l9.6,10c-0.4,1.3-0.7,2.6-0.7,4c0,7.5,6.1,13.6,13.6,13.6C186.9,238.3,193,232.2,193,224.7z"/>
<path class="st1" d="M84.1,88.5c7.5,0,13.6-6.1,13.6-13.6c0-1.4-0.3-2.8-0.7-4.1l14.8-16.3h49.1c2.4,4.1,6.7,6.8,11.7,6.8
	c7.5,0,13.6-6.1,13.6-13.6c0-7.5-6.1-13.6-13.6-13.6c-5,0-9.4,2.8-11.7,6.8h-52.1c-1.9,0-3.7,0.8-5,2.2L87,61.6
	c-0.9-0.2-1.9-0.3-2.9-0.3c-7.5,0-13.6,6.1-13.6,13.6S76.6,88.5,84.1,88.5z"/>
<path class="st1" d="M138.6,88.5c7.5,0,13.6-6.1,13.6-13.6s-6.1-13.6-13.6-13.6c-7.5,0-13.6,6.1-13.6,13.6c0,0.8,0.1,1.6,0.2,2.3
	l-18.3,18.3c-0.8-0.1-1.5-0.2-2.3-0.2c-7.5,0-13.6,6.1-13.6,13.6c0,7.5,6.1,13.6,13.6,13.6c7.5,0,13.6-6.1,13.6-13.6
	c0-1.6-0.3-3.1-0.8-4.6L134,87.7C135.4,88.2,137,88.5,138.6,88.5z"/>
</svg>
